<?xml version="1.0" encoding="UTF-8"?>
<!DOCTYPE svg PUBLIC "-//W3C//DTD SVG 1.1//EN" "http://www.w3.org/Graphics/SVG/1.1/DTD/svg11.dtd">
<!-- Creator: CorelDRAW -->
<?xml-stylesheet href="pppoe.css" type="text/css"?>
<svg xmlns="http://www.w3.org/2000/svg" xml:space="preserve" width="40px" height="40px" style="shape-rendering:geometricPrecision; text-rendering:geometricPrecision; image-rendering:optimizeQuality; fill-rule:evenodd; clip-rule:evenodd"
viewBox="0 0 40 40"
 xmlns:xlink="http://www.w3.org/1999/xlink">
 <g id="Camada_x0020_1">
  <metadata id="CorelCorpID_0Corel-Layer"/>
  <path class="fil0" d="M6.82809 4.85679l25.1462 0c1.33467,0 2.42721,1.14333 2.42721,2.54178l0 24.917c0,1.39845 -1.09254,2.54178 -2.42721,2.54178l-25.1462 0c-1.33467,0 -2.42721,-1.14333 -2.42721,-2.54178l0 -24.917c0,-1.39845 1.09254,-2.54178 2.42721,-2.54178zm3.36148 14.8822l0.507884 0c0.133467,0 0.250399,-0.0366149 0.349613,-0.113388 0.0980334,-0.0779543 0.172444,-0.186618 0.223233,-0.333077 0.0531507,-0.144097 0.0779543,-0.315361 0.0779543,-0.516152l0 -1.42208c0,-0.209059 -0.0248036,-0.387409 -0.0779543,-0.53505 -0.0507884,-0.151184 -0.125199,-0.264572 -0.223233,-0.342526 -0.0992146,-0.0779543 -0.216146,-0.118113 -0.349613,-0.118113l-0.366149 0 0 0.00354338 -0.615366 0 0 3.36385 0.473631 0 0 0.0129924zm-0.473631 1.15632l0 3.5918 -0.983878 0 0 -9.27774 0.983878 0 0 0.00236225 -0.439379 0 0 -0.00236225 1.40081 0c0.355519,0 0.656706,0.0826788 0.908286,0.248036 0.248036,0.16772 0.439379,0.409851 0.569303,0.727573 0.133467,0.320085 0.198429,0.703951 0.198429,1.15042l0 1.47404c0,0.437016 -0.0673242,0.812614 -0.19961,1.12089 -0.132286,0.311817 -0.32481,0.549223 -0.574027,0.712219 -0.250399,0.164176 -0.550405,0.246855 -0.90238,0.246855l-0.487805 0 0 0.00590563 -0.473631 0zm4.18945 -1.15632l1.42089 0c0.133467,0 0.250399,-0.0366149 0.349613,-0.113388 0.0980334,-0.0779543 0.172444,-0.186618 0.223233,-0.333077 0.0531507,-0.144097 0.0779543,-0.315361 0.0779543,-0.516152l0 -1.42208c0,-0.209059 -0.0248036,-0.387409 -0.0779543,-0.53505 -0.0507884,-0.151184 -0.125199,-0.264572 -0.223233,-0.342526 -0.0992146,-0.0779543 -0.216146,-0.118113 -0.349613,-0.118113l-0.537412 0 0 0.00118113 -0.444103 0 0 3.38038 -0.439379 0 0 -0.00118113zm0.439379 1.1575l0 3.59062 -0.983878 0 0 -9.27774 0.252761 0 0 -0.00590563 1.17522 0 0 0.00590563 0.517333 0c0.355519,0 0.656706,0.0826788 0.907104,0.248036 0.249218,0.16772 0.44056,0.409851 0.570484,0.727573 0.132286,0.320085 0.198429,0.703951 0.198429,1.15042l0 1.47404c0,0.437016 -0.0673242,0.812614 -0.19961,1.12089 -0.132286,0.311817 -0.32481,0.549223 -0.574027,0.712219 -0.250399,0.164176 -0.550405,0.246855 -0.90238,0.246855l-0.565759 0 0 0.00708675 -0.395677 0zm4.18827 -1.1575l1.42089 0c0.134648,0 0.25158,-0.0366149 0.349613,-0.113388 0.0992146,-0.0779543 0.173625,-0.186618 0.224414,-0.333077 0.0531507,-0.144097 0.0779543,-0.315361 0.0779543,-0.516152l0 -1.42208c0,-0.209059 -0.0248036,-0.387409 -0.0779543,-0.53505 -0.0507884,-0.151184 -0.125199,-0.264572 -0.224414,-0.342526 -0.0980334,-0.0779543 -0.214965,-0.118113 -0.349613,-0.118113l-0.45119 0 0 0.009449 -0.530325 0 0 3.37211 -0.439379 0 0 -0.00118113zm0.439379 1.1575l0 3.59062 -0.982697 0 0 -9.27774 0.982697 0 0 0.00236225 -0.439379 0 0 -0.00236225 1.402 0c0.355519,0 0.656706,0.0826788 0.907104,0.248036 0.249218,0.16772 0.439379,0.409851 0.570484,0.727573 0.132286,0.320085 0.197248,0.703951 0.197248,1.15042l0 1.47404c0,0.437016 -0.066143,0.812614 -0.198429,1.12089 -0.133467,0.311817 -0.32481,0.549223 -0.574027,0.712219 -0.250399,0.164176 -0.550405,0.246855 -0.90238,0.246855l-0.353157 0 0 0.00708675 -0.609461 0zm5.14616 3.68629c-0.32481,0 -0.603555,-0.075592 -0.836237,-0.226776 -0.231501,-0.150003 -0.409851,-0.369692 -0.531507,-0.657887 -0.124018,-0.287014 -0.184256,-0.630721 -0.184256,-1.03585l0 -3.02604c0,-0.398039 0.0602374,-0.739385 0.184256,-1.02285 0.121656,-0.28347 0.300006,-0.496073 0.531507,-0.644895 0.232682,-0.145278 0.511427,-0.219689 0.836237,-0.219689 0.323628,0 0.600012,0.0744109 0.830331,0.219689 0.229138,0.148822 0.401583,0.361424 0.522058,0.644895 0.118113,0.28347 0.17835,0.624815 0.17835,1.02285l0 3.04494c0,0.39922 -0.0602374,0.742928 -0.17835,1.02876 -0.120475,0.282289 -0.292919,0.500797 -0.522058,0.648438 -0.230319,0.150003 -0.506703,0.224414 -0.830331,0.224414zm-0.0106301 -1.17994c0.174807,0 0.312998,-0.0685053 0.412213,-0.200791 0.0968523,-0.134648 0.145278,-0.32481 0.145278,-0.572846l0 -2.93982c0,-0.239768 -0.0484262,-0.425205 -0.145278,-0.557491 -0.0992146,-0.135829 -0.237406,-0.203154 -0.412213,-0.203154 -0.172444,0 -0.308274,0.0673242 -0.408669,0.203154 -0.0992146,0.132286 -0.150003,0.317723 -0.150003,0.557491l0 2.93982c0,0.244493 0.0484262,0.433473 0.147641,0.568121 0.0968523,0.137011 0.235044,0.205516 0.411032,0.205516zm2.52288 -8.19347l0.310636 0 0 -0.00354338 1.17522 0 0 0.00354338 1.74098 0 0 1.14924 -1.74098 0 0 0.00354338 -0.50316 0 0 2.94218 0.552767 0 0 0.00118113 1.43389 0 0 1.14805 -1.43389 0 0 0.00708675 -0.552767 0 0 2.87014 0.409851 0 0 0.00826788 1.83429 0 0 1.14805 -1.83429 0 0 0 -1.17522 0 0 0 -0.217327 0 0 -9.27774z"/>
 </g>
</svg>
