<?xml version="1.0" encoding="UTF-8"?>
<!DOCTYPE svg PUBLIC "-//W3C//DTD SVG 1.1//EN" "http://www.w3.org/Graphics/SVG/1.1/DTD/svg11.dtd">
<!-- Creator: CorelDRAW -->
<?xml-stylesheet href="dados.css" type="text/css"?>
<svg xmlns="http://www.w3.org/2000/svg" xml:space="preserve" width="40px" height="40px" style="shape-rendering:geometricPrecision; text-rendering:geometricPrecision; image-rendering:optimizeQuality; fill-rule:evenodd; clip-rule:evenodd"
viewBox="0 0 40 40"
 xmlns:xlink="http://www.w3.org/1999/xlink">
 <g id="Camada_x0020_1">
  <metadata id="CorelCorpID_0Corel-Layer"/>
  <path class="fil0" d="M8.42024 3.85874l25.1462 0c1.33467,0 2.42721,1.13388 2.42721,2.51934l0 24.6985c0,1.38546 -1.09254,2.51934 -2.42721,2.51934l-25.1462 0c-1.33467,0 -2.42721,-1.13388 -2.42721,-2.51934l0 -24.6985c0,-1.38546 1.09254,-2.51934 2.42721,-2.51934zm7.94543 7.21786l0.037796 4.51426 -0.0118113 0.611823c0.138192,0.539774 0.646076,0.498435 1.17876,0.589382l2.39414 0 0 1.42916 -9.76318 0c-0.129924,0 -0.302368,0.118113 -0.364968,0.205516 -0.12638,0.259848 -0.242131,1.07128 -0.0129924,1.28979l0.37796 0.225595 3.66031 0 0 1.42798 -1.81421 0c-0.679147,0 -1.13152,0.411032 -1.2201,1.07246l0 4.73986c0,0.305912 0.15709,0.590563 0.303549,0.75592l0.696864 0.348432 5.75799 0c0.125199,0 0.268116,-0.0602374 0.366149,-0.107482 0.155909,-0.075592 0.185437,-0.0897655 0.300006,-0.207878l0.33544 -0.690958 0 -4.87096c0,-0.141735 -0.0767732,-0.329534 -0.124018,-0.424024 -0.0389771,-0.0791354 -0.164176,-0.250399 -0.232682,-0.309455l-0.800803 -0.305912 -1.87799 0 0 -1.42798 10.5144 0 0 1.42798 -1.81539 0c-0.398039,0 -0.592925,0.0921278 -0.827969,0.277565l-0.392134 0.761826 0 4.83789c0,0.250399 0.191342,0.575208 0.318904,0.707494l0.7134 0.331896 5.7261 0c0.24095,0 0.553948,-0.198429 0.682691,-0.331896l0.318904 -0.707494 0 -4.77293c0,-0.279927 -0.108664,-0.500797 -0.270478,-0.69214l-0.0448828 -0.0519695c-0.0460639,-0.0496073 -0.759464,-0.343708 -0.842143,-0.360243l-1.87799 0 0 -1.42798 3.66149 0c0.135829,0 0.317723,-0.133467 0.382685,-0.22087 0.109845,-0.24095 0.203154,-1.07719 -0.0047245,-1.27562l-0.37796 -0.224414 -9.76318 0 0 -1.42916 2.37879 0c0.386228,0 0.648438,-0.111026 0.856316,-0.311817l0.135829 -0.152365c0.11575,-0.153546 0.205516,-0.488986 0.227957,-0.67206l0 -4.64419c0,-0.617729 -0.46182,-1.05356 -1.00159,-1.13624l-6.821 0c-0.161814,0 -0.310636,0.0496073 -0.428749,0.107482 -0.0874033,0.0413394 -0.10512,0.0531507 -0.174807,0.111026 -0.298825,0.252761 -0.460639,0.538593 -0.460639,0.982697zm7.84622 11.7605l5.51704 0 0 3.81858 -5.51704 0 0 -3.81858zm-12.3463 0.108664l5.51704 0 0 3.81976 -5.51704 0 0 -3.81976zm5.86429 -11.4628l6.2328 0 0 3.81858 -6.2328 0 0 -3.81858z"/>
 </g>
</svg>
