<?xml version="1.0" encoding="UTF-8"?>
<!DOCTYPE svg PUBLIC "-//W3C//DTD SVG 1.1//EN" "http://www.w3.org/Graphics/SVG/1.1/DTD/svg11.dtd">
<!-- Creator: CorelDRAW -->
<?xml-stylesheet href="olt.css" type="text/css"?>
<svg xmlns="http://www.w3.org/2000/svg" xml:space="preserve" width="40px" height="40px" style="shape-rendering:geometricPrecision; text-rendering:geometricPrecision; image-rendering:optimizeQuality; fill-rule:evenodd; clip-rule:evenodd"
viewBox="0 0 40 40"
 xmlns:xlink="http://www.w3.org/1999/xlink">
 <g id="Camada_x0020_1">
  <metadata id="CorelCorpID_0Corel-Layer"/>
  <path class="fil0" d="M8.02221 5.44145l25.1462 0c1.33467,0 2.42721,1.14333 2.42721,2.54178l0 24.917c0,1.39845 -1.09254,2.54178 -2.42721,2.54178l-25.1462 0c-1.33467,0 -2.42721,-1.14333 -2.42721,-2.54178l0 -24.917c0,-1.39845 1.09254,-2.54178 2.42721,-2.54178zm1.93114 14.783c0,-1.42444 0.364968,-2.53942 1.0949,-3.34495 0.731117,-0.804347 1.67365,-1.20829 2.82998,-1.20829 0.75592,0 1.43861,0.190161 2.04571,0.568121 0.607099,0.379141 1.0701,0.905923 1.389,1.58389 0.318904,0.674423 0.477175,1.44452 0.477175,2.30083 0,0.87049 -0.166539,1.65003 -0.501978,2.33509 -0.33544,0.687415 -0.811433,1.20711 -1.42562,1.56027 -0.616548,0.353157 -1.27798,0.529144 -1.9902,0.529144 -0.772456,0 -1.46105,-0.193705 -2.06815,-0.584657 -0.60828,-0.389771 -1.06892,-0.92364 -1.38074,-1.59806 -0.312998,-0.673242 -0.470088,-1.389 -0.470088,-2.14138zm1.11853 0.0177169c0,1.03467 0.264572,1.84728 0.794898,2.44257 0.532688,0.595287 1.19884,0.892931 1.99965,0.892931 0.817339,0 1.4894,-0.298825 2.015,-0.901199 0.526782,-0.600012 0.792535,-1.45397 0.792535,-2.55832 0,-0.696864 -0.114569,-1.30632 -0.340164,-1.82838 -0.224414,-0.520876 -0.555129,-0.92364 -0.988602,-1.21183 -0.434654,-0.285832 -0.921278,-0.42993 -1.46105,-0.42993 -0.768913,0 -1.42916,0.276383 -1.98193,0.82915 -0.553948,0.551586 -0.830331,1.47404 -0.830331,2.76502zm8.07063 4.16111l0 -8.5797 1.08545 0 0 7.56629 4.03591 0 0 1.01341 -5.12136 0zm7.65015 0l0 -7.56747 -2.70005 0 0 -1.01222 6.49501 0 0 1.01222 -2.71186 0 0 7.56747 -1.08309 0z"/>
 </g>
</svg>
