<?xml version="1.0" encoding="UTF-8"?>
<!DOCTYPE svg PUBLIC "-//W3C//DTD SVG 1.1//EN" "http://www.w3.org/Graphics/SVG/1.1/DTD/svg11.dtd">
<!-- Creator: CorelDRAW -->
<?xml-stylesheet href="roteador.css" type="text/css"?>
<svg xmlns="http://www.w3.org/2000/svg" xml:space="preserve" width="40px" height="40px" style="shape-rendering:geometricPrecision; text-rendering:geometricPrecision; image-rendering:optimizeQuality; fill-rule:evenodd; clip-rule:evenodd"
viewBox="0 0 40 40"
 xmlns:xlink="http://www.w3.org/1999/xlink">
 <g id="Camada_x0020_1">
  <metadata id="CorelCorpID_0Corel-Layer"/>
  <path class="fil0" d="M7.86512 4.5497l25.1462 0c1.33467,0 2.42721,1.14333 2.42721,2.54178l0 24.917c0,1.39727 -1.09254,2.54178 -2.42721,2.54178l-25.1462 0c-1.33467,0 -2.42721,-1.14451 -2.42721,-2.54178l0 -24.917c0,-1.39845 1.09254,-2.54178 2.42721,-2.54178zm8.28087 22.4249l0.037796 0 0 -0.121656 0.0389771 0 0 -0.0803165 0.0389771 0 0 -0.0401583 0.037796 0 0 -0.0413394 0.0389771 0 0 -0.0401583 0.0389771 0 0 -0.0401583 0.0767732 0 0 -0.0401583 0.0389771 0 0 -0.0413394 0.154727 0 0 -0.0401583 0.501978 0 0 0.0401583 0.11575 0 0 0.0413394 0.0767732 0 0 0.0401583 0.0389771 0 0 0.0401583 0.0389771 0 0 0.0401583 0.037796 0 0 0.0413394 0.0389771 0 0 0.0401583 0.0389771 0 0 0.0803165 0.037796 0 0 0.121656 0.0389771 0 0 0.323628 -0.0389771 0 0 0.120475 -0.037796 0 0 0.0413394 -0.0389771 0 0 0.0803165 -0.0389771 0 0 0.0401583 -0.037796 0 0 0.0413394 -0.0779543 0 0 0.0401583 -0.0389771 0 0 0.0401583 -0.11575 0 0 0.0401583 -0.617729 0 0 -0.0401583 -0.0767732 0 0 -0.0401583 -0.0779543 0 0 -0.0401583 -0.037796 0 0 -0.0413394 -0.0389771 0 0 -0.0401583 -0.0389771 0 0 -0.0401583 -0.037796 0 0 -0.0401583 -0.0389771 0 0 -0.0814977 -0.0389771 0 0 -0.121656 -0.037796 0 0 -0.282289zm4.51781 0.403945l-0.037796 0 0 0.0814977 -0.0389771 0 0 0.0401583 -0.0389771 0 0 0.0401583 -0.0389771 0 0 0.0401583 -0.037796 0 0 0.0413394 -0.0389771 0 0 0.0401583 -0.0767732 0 0 0.0401583 -0.0779543 0 0 0.0401583 -0.617729 0 0 -0.0401583 -0.11575 0 0 -0.0401583 -0.0389771 0 0 -0.0401583 -0.0767732 0 0 -0.0413394 -0.0389771 0 0 -0.0401583 -0.0389771 0 0 -0.0401583 -0.037796 0 0 -0.0814977 -0.0389771 0 0 -0.0803165 -0.0389771 0 0 -0.403945 0.0389771 0 0 -0.121656 0.0389771 0 0 -0.0401583 0.037796 0 0 -0.0401583 0.0389771 0 0 -0.0814977 0.0779543 0 0 -0.0401583 0.037796 0 0 -0.0401583 0.0779543 0 0 -0.0413394 0.11575 0 0 -0.0401583 0.501978 0 0 0.0401583 0.11575 0 0 0.0413394 0.0767732 0 0 0.0401583 0.0779543 0 0 0.0401583 0.037796 0 0 0.0401583 0.0389771 0 0 0.0413394 0.0389771 0 0 0.0803165 0.0389771 0 0 0.0803165 0.037796 0 0 0.161814 0.0389771 0 0 0.161814 -0.0389771 0 0 0.161814zm-7.56865 -0.363787l0.037796 0 0 -0.121656 0.0389771 0 0 -0.0803165 0.0389771 0 0 -0.0803165 0.037796 0 0 -0.0413394 0.0389771 0 0 -0.0401583 0.0389771 0 0 -0.0401583 0.0767732 0 0 -0.0401583 0.0767732 0 0 -0.0413394 0.116931 0 0 -0.0401583 0.501978 0 0 0.0401583 0.11575 0 0 0.0413394 0.0767732 0 0 0.0401583 0.0389771 0 0 0.0401583 0.0767732 0 0 0.0401583 0.0389771 0 0 0.0814977 0.0389771 0 0 0.0401583 0.037796 0 0 0.121656 0.0389771 0 0 0.403945 -0.0389771 0 0 0.0803165 -0.037796 0 0 0.0814977 -0.0389771 0 0 0.0401583 -0.0389771 0 0 0.0401583 -0.0389771 0 0 0.0413394 -0.0767732 0 0 0.0401583 -0.0389771 0 0 0.0401583 -0.11575 0 0 0.0401583 -0.617729 0 0 -0.0401583 -0.0767732 0 0 -0.0401583 -0.0779543 0 0 -0.0401583 -0.037796 0 0 -0.0413394 -0.0389771 0 0 -0.0401583 -0.0389771 0 0 -0.0401583 -0.037796 0 0 -0.0401583 -0.0389771 0 0 -0.0814977 -0.0389771 0 0 -0.161814 -0.037796 0 0 -0.201972zm4.0926 -13.8676l-0.192523 0 0 0.0401583 -0.11575 0 0 0.0401583 -0.11575 0 0 0.0413394 -0.0779543 0 0 0.0401583 -0.0767732 0 0 0.0401583 -0.0767732 0 0 0.0401583 -0.0779543 0 0 0.0401583 -0.0389771 0 0 0.0413394 -0.0767732 0 0 0.0401583 -0.0389771 0 0 0.0401583 -0.037796 0 0 0.0401583 -0.0779543 0 0 0.0413394 -0.037796 0 0 0.0401583 -0.0389771 0 0 0.0401583 -0.0389771 0 0 0.0401583 -0.037796 0 0 0.0413394 -0.0389771 0 0 0.0401583 -0.0389771 0 0 0.0803165 -0.0389771 0 0 0.0401583 -0.037796 0 0 0.0413394 -0.0389771 0 0 0.0803165 -0.0389771 0 0 0.0401583 -0.037796 0 0 0.0814977 -0.0389771 0 0 0.0803165 -0.0389771 0 0 0.0814977 -0.037796 0 0 0.0803165 -0.0389771 0 0 0.0814977 -0.0389771 0 0 0.120475 -0.0389771 0 0 0.161814 -0.037796 0 0 0.243312 -0.0389771 0 0 0.525601 0.0389771 0 0 0.201972 0.037796 0 0 0.161814 0.0389771 0 0 0.120475 0.0389771 0 0 0.121656 0.0389771 0 0 0.0814977 0.037796 0 0 0.0803165 0.0389771 0 0 0.0814977 0.0389771 0 0 0.0401583 0.037796 0 0 0.0803165 0.0389771 0 0 0.0401583 0.0389771 0 0 0.0814977 0.037796 0 0 0.0401583 0.0389771 0 0 0.0401583 0.0389771 0 0 0.0413394 0.0389771 0 0 0.0401583 0.037796 0 0 0.0401583 0.0389771 0 0 0.0401583 0.0389771 0 0 0.0413394 0.037796 0 0 0.0401583 0.0389771 0 0 0.0401583 0.0389771 0 0 0.0401583 0.0767732 0 0 0.0401583 0.0389771 0 0 0.0413394 0.0767732 0 0 0.0401583 0.0779543 0 0 0.0401583 0.037796 0 0 0.0401583 0.11575 0 0 0.0413394 0.0779543 0 0 0.0401583 0.11575 0 0 0.0401583 0.0389771 0 0 6.59068 -4.94419 0 0 0.0401583 -0.192523 0 0 0.0401583 -0.11575 0 0 0.0401583 -0.11575 0 0 0.0413394 -0.116931 0 0 0.0401583 -0.0767732 0 0 0.0401583 -0.0389771 0 0 0.0401583 -0.0767732 0 0 0.0413394 -0.0767732 0 0 0.0401583 -0.0389771 0 0 0.0401583 -0.0389771 0 0 0.0401583 -0.037796 0 0 0.0413394 -0.0779543 0 0 0.0401583 -0.0389771 0 0 0.0401583 -0.037796 0 0 0.0401583 -0.0389771 0 0 0.0401583 -0.0389771 0 0 0.0814977 -0.037796 0 0 0.0401583 -0.0389771 0 0 0.0401583 -0.0389771 0 0 0.0814977 -0.037796 0 0 0.0401583 -0.0389771 0 0 0.0814977 -0.0389771 0 0 0.0803165 -0.0389771 0 0 0.0803165 -0.037796 0 0 0.121656 -0.0389771 0 0 0.121656 -0.0389771 0 0 0.161814 -0.037796 0 0 3.11345 0.037796 0 0 0.160633 0.0389771 0 0 0.121656 0.0389771 0 0 0.0814977 0.037796 0 0 0.120475 0.0389771 0 0 0.0814977 0.0389771 0 0 0.0401583 0.0389771 0 0 0.0803165 0.037796 0 0 0.0413394 0.0389771 0 0 0.0803165 0.0389771 0 0 0.0401583 0.037796 0 0 0.0413394 0.0389771 0 0 0.0401583 0.0389771 0 0 0.0401583 0.037796 0 0 0.0401583 0.0389771 0 0 0.0413394 0.0389771 0 0 0.0401583 0.0389771 0 0 0.0401583 0.037796 0 0 0.0401583 0.0779543 0 0 0.0413394 0.037796 0 0 0.0401583 0.0779543 0 0 0.0401583 0.037796 0 0 0.0401583 0.0779543 0 0 0.0401583 0.11575 0 0 0.0413394 0.0767732 0 0 0.0401583 0.11575 0 0 0.0401583 0.154727 0 0 0.0401583 16.5299 0 0 -0.0401583 0.153546 0 0 -0.0401583 0.116931 0 0 -0.0401583 0.0767732 0 0 -0.0413394 0.11575 0 0 -0.0401583 0.0767732 0 0 -0.0401583 0.0389771 0 0 -0.0401583 0.0779543 0 0 -0.0401583 0.037796 0 0 -0.0413394 0.0779543 0 0 -0.0401583 0.037796 0 0 -0.0401583 0.0389771 0 0 -0.0401583 0.0389771 0 0 -0.0413394 0.037796 0 0 -0.0401583 0.0389771 0 0 -0.0401583 0.0389771 0 0 -0.0401583 0.037796 0 0 -0.0413394 0.0389771 0 0 -0.0401583 0.0389771 0 0 -0.0803165 0.0389771 0 0 -0.0413394 0.037796 0 0 -0.0803165 0.0389771 0 0 -0.0401583 0.0389771 0 0 -0.0814977 0.037796 0 0 -0.120475 0.0389771 0 0 -0.0814977 0.0389771 0 0 -0.121656 0.037796 0 0 -0.160633 0.0389771 0 0 -3.11345 -0.0389771 0 0 -0.161814 -0.037796 0 0 -0.121656 -0.0389771 0 0 -0.121656 -0.0389771 0 0 -0.0803165 -0.037796 0 0 -0.0803165 -0.0389771 0 0 -0.0814977 -0.0389771 0 0 -0.0401583 -0.037796 0 0 -0.0814977 -0.0389771 0 0 -0.0401583 -0.0389771 0 0 -0.0401583 -0.0389771 0 0 -0.0814977 -0.037796 0 0 -0.0401583 -0.0389771 0 0 -0.0401583 -0.0389771 0 0 -0.0401583 -0.037796 0 0 -0.0401583 -0.0779543 0 0 -0.0413394 -0.037796 0 0 -0.0401583 -0.0389771 0 0 -0.0401583 -0.0389771 0 0 -0.0401583 -0.0767732 0 0 -0.0413394 -0.0779543 0 0 -0.0401583 -0.037796 0 0 -0.0401583 -0.0779543 0 0 -0.0401583 -0.11575 0 0 -0.0413394 -0.11575 0 0 -0.0401583 -0.11575 0 0 -0.0401583 -0.192523 0 0 -0.0401583 -10.1187 0 0 -6.59068 0.0389771 0 0 -0.0401583 0.11575 0 0 -0.0401583 0.0767732 0 0 -0.0413394 0.0767732 0 0 -0.0401583 0.0779543 0 0 -0.0401583 0.0767732 0 0 -0.0401583 0.0389771 0 0 -0.0413394 0.0767732 0 0 -0.0401583 0.0389771 0 0 -0.0401583 0.0767732 0 0 -0.0401583 0.0389771 0 0 -0.0401583 0.0389771 0 0 -0.0413394 0.037796 0 0 -0.0401583 0.0389771 0 0 -0.0401583 0.0389771 0 0 -0.0401583 0.0389771 0 0 -0.0413394 0.037796 0 0 -0.0401583 0.0389771 0 0 -0.0401583 0.0389771 0 0 -0.0814977 0.037796 0 0 -0.0401583 0.0389771 0 0 -0.0401583 0.0389771 0 0 -0.0803165 0.037796 0 0 -0.0413394 0.0389771 0 0 -0.0803165 0.0389771 0 0 -0.0814977 0.0389771 0 0 -0.0803165 0.037796 0 0 -0.121656 0.0389771 0 0 -0.120475 0.0389771 0 0 -0.161814 0.037796 0 0 -0.243312 0.0389771 0 0 -0.403945 -0.0389771 0 0 -0.243312 -0.037796 0 0 -0.160633 -0.0389771 0 0 -0.121656 -0.0389771 0 0 -0.121656 -0.037796 0 0 -0.0803165 -0.0389771 0 0 -0.0814977 -0.0389771 0 0 -0.0803165 -0.0389771 0 0 -0.0401583 -0.037796 0 0 -0.0814977 -0.0389771 0 0 -0.0401583 -0.0389771 0 0 -0.0814977 -0.037796 0 0 -0.0401583 -0.0389771 0 0 -0.0401583 -0.0389771 0 0 -0.0401583 -0.037796 0 0 -0.0401583 -0.0389771 0 0 -0.0413394 -0.0389771 0 0 -0.0401583 -0.0389771 0 0 -0.0401583 -0.037796 0 0 -0.0401583 -0.0389771 0 0 -0.0413394 -0.0389771 0 0 -0.0401583 -0.0767732 0 0 -0.0401583 -0.0389771 0 0 -0.0401583 -0.037796 0 0 -0.0413394 -0.0779543 0 0 -0.0401583 -0.0767732 0 0 -0.0401583 -0.0779543 0 0 -0.0401583 -0.0767732 0 0 -0.0401583 -0.0767732 0 0 -0.0413394 -0.11575 0 0 -0.0401583 -0.116931 0 0 -0.0401583 -0.192523 0 0 -0.0401583 -0.695683 0 0 0.0401583zm4.75049 -3.27526l-0.0767732 0 0 0.0401583 -0.0779543 0 0 0.0413394 -0.037796 0 0 0.0401583 -0.0389771 0 0 0.0401583 -0.0389771 0 0 0.0401583 -0.037796 0 0 0.0413394 -0.0389771 0 0 0.0803165 -0.0389771 0 0 0.121656 -0.037796 0 0 0.323628 0.037796 0 0 0.0803165 0.0389771 0 0 0.0803165 0.0389771 0 0 0.0413394 0.037796 0 0 0.0803165 0.0389771 0 0 0.0401583 0.0389771 0 0 0.0413394 0.037796 0 0 0.0401583 0.0389771 0 0 0.0401583 0.0389771 0 0 0.0401583 0.037796 0 0 0.0401583 0.0389771 0 0 0.0413394 0.0389771 0 0 0.0401583 0.0389771 0 0 0.0401583 0.037796 0 0 0.0814977 0.0389771 0 0 0.0401583 0.0389771 0 0 0.0401583 0.037796 0 0 0.0401583 0.0389771 0 0 0.0814977 0.0389771 0 0 0.0401583 0.0389771 0 0 0.0401583 0.037796 0 0 0.0814977 0.0389771 0 0 0.0401583 0.0389771 0 0 0.0803165 0.037796 0 0 0.0413394 0.0389771 0 0 0.0803165 0.0389771 0 0 0.0401583 0.037796 0 0 0.0814977 0.0389771 0 0 0.0803165 0.0389771 0 0 0.0401583 0.037796 0 0 0.0814977 0.0389771 0 0 0.0803165 0.0389771 0 0 0.0814977 0.037796 0 0 0.0803165 0.0389771 0 0 0.0814977 0.0389771 0 0 0.0803165 0.0389771 0 0 0.0814977 0.037796 0 0 0.0803165 0.0389771 0 0 0.121656 0.0389771 0 0 0.0803165 0.037796 0 0 0.121656 0.0389771 0 0 0.121656 0.0389771 0 0 0.120475 0.0389771 0 0 0.121656 0.037796 0 0 0.161814 0.0389771 0 0 0.161814 0.0389771 0 0 0.201972 0.037796 0 0 0.201972 0.0389771 0 0 0.323628 0.0389771 0 0 0.647257 0.037796 0 0 0.201972 -0.037796 0 0 0.565759 -0.0389771 0 0 0.323628 -0.0389771 0 0 0.201972 -0.037796 0 0 0.201972 -0.0389771 0 0 0.161814 -0.0389771 0 0 0.121656 -0.037796 0 0 0.161814 -0.0389771 0 0 0.121656 -0.0389771 0 0 0.120475 -0.0389771 0 0 0.0814977 -0.037796 0 0 0.120475 -0.0389771 0 0 0.0814977 -0.0389771 0 0 0.121656 -0.037796 0 0 0.0803165 -0.0389771 0 0 0.0814977 -0.0389771 0 0 0.0803165 -0.0389771 0 0 0.0814977 -0.037796 0 0 0.0803165 -0.0389771 0 0 0.0803165 -0.0389771 0 0 0.0814977 -0.037796 0 0 0.0401583 -0.0389771 0 0 0.0803165 -0.0389771 0 0 0.0413394 -0.037796 0 0 0.0803165 -0.0389771 0 0 0.0814977 -0.0389771 0 0 0.0401583 -0.037796 0 0 0.0803165 -0.0389771 0 0 0.0413394 -0.0389771 0 0 0.0401583 -0.037796 0 0 0.0803165 -0.0389771 0 0 0.0401583 -0.0389771 0 0 0.0413394 -0.0389771 0 0 0.0803165 -0.037796 0 0 0.0401583 -0.0389771 0 0 0.0413394 -0.0389771 0 0 0.0401583 -0.037796 0 0 0.0803165 -0.0389771 0 0 0.0413394 -0.0389771 0 0 0.0401583 -0.0389771 0 0 0.0401583 -0.037796 0 0 0.0401583 -0.0389771 0 0 0.0413394 -0.0389771 0 0 0.0401583 -0.037796 0 0 0.0401583 -0.0389771 0 0 0.0401583 -0.0389771 0 0 0.0401583 -0.037796 0 0 0.0814977 -0.0389771 0 0 0.0401583 -0.0389771 0 0 0.121656 -0.037796 0 0 0.323628 0.037796 0 0 0.120475 0.0389771 0 0 0.0814977 0.0389771 0 0 0.0401583 0.037796 0 0 0.0401583 0.0389771 0 0 0.0413394 0.0389771 0 0 0.0401583 0.037796 0 0 0.0401583 0.0779543 0 0 0.0401583 0.0767732 0 0 0.0401583 0.386228 0 0 -0.0401583 0.0779543 0 0 -0.0401583 0.0767732 0 0 -0.0401583 0.0389771 0 0 -0.0401583 0.037796 0 0 -0.0413394 0.0389771 0 0 -0.0401583 0.0389771 0 0 -0.0401583 0.037796 0 0 -0.0401583 0.0389771 0 0 -0.0413394 0.0389771 0 0 -0.0401583 0.037796 0 0 -0.0401583 0.0389771 0 0 -0.0401583 0.0389771 0 0 -0.0413394 0.0389771 0 0 -0.0401583 0.037796 0 0 -0.0803165 0.0389771 0 0 -0.0401583 0.0389771 0 0 -0.0413394 0.037796 0 0 -0.0401583 0.0389771 0 0 -0.0401583 0.0389771 0 0 -0.0814977 0.0389771 0 0 -0.0401583 0.037796 0 0 -0.0401583 0.0389771 0 0 -0.0401583 0.0389771 0 0 -0.0814977 0.037796 0 0 -0.0401583 0.0389771 0 0 -0.0803165 0.0389771 0 0 -0.0413394 0.037796 0 0 -0.0401583 0.0389771 0 0 -0.0803165 0.0389771 0 0 -0.0814977 0.0389771 0 0 -0.0401583 0.037796 0 0 -0.0814977 0.0389771 0 0 -0.0401583 0.0389771 0 0 -0.0803165 0.037796 0 0 -0.0814977 0.0389771 0 0 -0.0401583 0.0389771 0 0 -0.0803165 0.037796 0 0 -0.0814977 0.0389771 0 0 -0.0803165 0.0389771 0 0 -0.0814977 0.037796 0 0 -0.0803165 0.0389771 0 0 -0.0814977 0.0389771 0 0 -0.0803165 0.0389771 0 0 -0.121656 0.037796 0 0 -0.0803165 0.0389771 0 0 -0.0814977 0.0389771 0 0 -0.120475 0.037796 0 0 -0.121656 0.0389771 0 0 -0.0814977 0.0389771 0 0 -0.120475 0.0389771 0 0 -0.121656 0.037796 0 0 -0.161814 0.0389771 0 0 -0.161814 0.0389771 0 0 -0.161814 0.037796 0 0 -0.161814 0.0389771 0 0 -0.201972 0.0389771 0 0 -0.242131 0.037796 0 0 -0.323628 0.0389771 0 0 -0.485443 0.0389771 0 0 -0.646076 -0.0389771 0 0 -0.526782 -0.0389771 0 0 -0.322447 -0.037796 0 0 -0.243312 -0.0389771 0 0 -0.201972 -0.0389771 0 0 -0.161814 -0.037796 0 0 -0.161814 -0.0389771 0 0 -0.120475 -0.0389771 0 0 -0.161814 -0.037796 0 0 -0.121656 -0.0389771 0 0 -0.121656 -0.0389771 0 0 -0.120475 -0.0389771 0 0 -0.0814977 -0.037796 0 0 -0.121656 -0.0389771 0 0 -0.120475 -0.0389771 0 0 -0.0814977 -0.037796 0 0 -0.0803165 -0.0389771 0 0 -0.0814977 -0.0389771 0 0 -0.0803165 -0.0389771 0 0 -0.0814977 -0.037796 0 0 -0.0803165 -0.0389771 0 0 -0.0814977 -0.0389771 0 0 -0.0803165 -0.037796 0 0 -0.0814977 -0.0389771 0 0 -0.0803165 -0.0389771 0 0 -0.0803165 -0.037796 0 0 -0.0413394 -0.0389771 0 0 -0.0803165 -0.0389771 0 0 -0.0401583 -0.037796 0 0 -0.0814977 -0.0389771 0 0 -0.0803165 -0.0389771 0 0 -0.0413394 -0.0389771 0 0 -0.0803165 -0.037796 0 0 -0.0401583 -0.0389771 0 0 -0.0401583 -0.0389771 0 0 -0.0814977 -0.037796 0 0 -0.0401583 -0.0389771 0 0 -0.0814977 -0.0389771 0 0 -0.0401583 -0.037796 0 0 -0.0401583 -0.0389771 0 0 -0.0803165 -0.0389771 0 0 -0.0413394 -0.0389771 0 0 -0.0401583 -0.037796 0 0 -0.0401583 -0.0389771 0 0 -0.0413394 -0.0389771 0 0 -0.0401583 -0.037796 0 0 -0.0803165 -0.0389771 0 0 -0.0401583 -0.0389771 0 0 -0.0413394 -0.0389771 0 0 -0.0401583 -0.037796 0 0 -0.0401583 -0.0389771 0 0 -0.0401583 -0.0389771 0 0 -0.0401583 -0.037796 0 0 -0.0413394 -0.0389771 0 0 -0.0401583 -0.0389771 0 0 -0.0401583 -0.037796 0 0 -0.0401583 -0.0389771 0 0 -0.0413394 -0.0767732 0 0 -0.0401583 -0.0779543 0 0 -0.0401583 -0.386228 0 0 0.0401583zm-9.22932 0l-0.0779543 0 0 0.0401583 -0.0767732 0 0 0.0413394 -0.0389771 0 0 0.0401583 -0.0389771 0 0 0.0401583 -0.037796 0 0 0.0401583 -0.0389771 0 0 0.0413394 -0.0389771 0 0 0.0401583 -0.037796 0 0 0.0401583 -0.0389771 0 0 0.0401583 -0.0389771 0 0 0.0401583 -0.037796 0 0 0.0413394 -0.0389771 0 0 0.0803165 -0.0389771 0 0 0.0401583 -0.0389771 0 0 0.0401583 -0.037796 0 0 0.0413394 -0.0389771 0 0 0.0401583 -0.0389771 0 0 0.0401583 -0.037796 0 0 0.0814977 -0.0389771 0 0 0.0401583 -0.0389771 0 0 0.0401583 -0.037796 0 0 0.0401583 -0.0389771 0 0 0.0814977 -0.0389771 0 0 0.0401583 -0.0389771 0 0 0.0814977 -0.037796 0 0 0.0401583 -0.0389771 0 0 0.0401583 -0.0389771 0 0 0.0803165 -0.037796 0 0 0.0413394 -0.0389771 0 0 0.0803165 -0.0389771 0 0 0.0401583 -0.0389771 0 0 0.0814977 -0.037796 0 0 0.0803165 -0.0389771 0 0 0.0413394 -0.0389771 0 0 0.0803165 -0.037796 0 0 0.0803165 -0.0389771 0 0 0.0814977 -0.0389771 0 0 0.0401583 -0.037796 0 0 0.0814977 -0.0389771 0 0 0.0803165 -0.0389771 0 0 0.0814977 -0.037796 0 0 0.120475 -0.0389771 0 0 0.0814977 -0.0389771 0 0 0.0803165 -0.0389771 0 0 0.0814977 -0.037796 0 0 0.120475 -0.0389771 0 0 0.121656 -0.0389771 0 0 0.0814977 -0.037796 0 0 0.120475 -0.0389771 0 0 0.121656 -0.0389771 0 0 0.121656 -0.037796 0 0 0.161814 -0.0389771 0 0 0.120475 -0.0389771 0 0 0.201972 -0.0389771 0 0 0.161814 -0.037796 0 0 0.243312 -0.0389771 0 0 0.242131 -0.0389771 0 0 0.323628 -0.037796 0 0 1.49531 0.037796 0 0 0.323628 0.0389771 0 0 0.243312 0.0389771 0 0 0.201972 0.037796 0 0 0.201972 0.0389771 0 0 0.161814 0.0389771 0 0 0.161814 0.0389771 0 0 0.121656 0.037796 0 0 0.120475 0.0389771 0 0 0.121656 0.0389771 0 0 0.121656 0.037796 0 0 0.120475 0.0389771 0 0 0.0814977 0.0389771 0 0 0.121656 0.037796 0 0 0.0803165 0.0389771 0 0 0.121656 0.0389771 0 0 0.0803165 0.0389771 0 0 0.0803165 0.037796 0 0 0.0814977 0.0389771 0 0 0.0814977 0.0389771 0 0 0.0803165 0.037796 0 0 0.0803165 0.0389771 0 0 0.0814977 0.0389771 0 0 0.0401583 0.037796 0 0 0.0803165 0.0389771 0 0 0.0814977 0.0389771 0 0 0.0401583 0.037796 0 0 0.0814977 0.0389771 0 0 0.0803165 0.0389771 0 0 0.0401583 0.0389771 0 0 0.0814977 0.037796 0 0 0.0401583 0.0389771 0 0 0.0814977 0.0389771 0 0 0.0401583 0.037796 0 0 0.0401583 0.0389771 0 0 0.0803165 0.0389771 0 0 0.0413394 0.0389771 0 0 0.0401583 0.037796 0 0 0.0803165 0.0389771 0 0 0.0413394 0.0389771 0 0 0.0401583 0.037796 0 0 0.0803165 0.0389771 0 0 0.0413394 0.0389771 0 0 0.0401583 0.037796 0 0 0.0401583 0.0389771 0 0 0.0401583 0.0389771 0 0 0.0401583 0.0389771 0 0 0.0413394 0.037796 0 0 0.0401583 0.0389771 0 0 0.0803165 0.0389771 0 0 0.0413394 0.037796 0 0 0.0401583 0.0389771 0 0 0.0401583 0.0389771 0 0 0.0401583 0.037796 0 0 0.0413394 0.0389771 0 0 0.0401583 0.0767732 0 0 0.0401583 0.0389771 0 0 0.0401583 0.11575 0 0 0.0401583 0.348432 0 0 -0.0401583 0.0767732 0 0 -0.0401583 0.0767732 0 0 -0.0401583 0.0389771 0 0 -0.0401583 0.0389771 0 0 -0.0413394 0.037796 0 0 -0.0401583 0.0389771 0 0 -0.0401583 0.0389771 0 0 -0.0814977 0.037796 0 0 -0.0803165 0.0389771 0 0 -0.403945 -0.0389771 0 0 -0.0814977 -0.037796 0 0 -0.0803165 -0.0389771 0 0 -0.0413394 -0.0389771 0 0 -0.0401583 -0.037796 0 0 -0.0401583 -0.0389771 0 0 -0.0401583 -0.0389771 0 0 -0.0401583 -0.037796 0 0 -0.0413394 -0.0389771 0 0 -0.0401583 -0.0389771 0 0 -0.0401583 -0.037796 0 0 -0.0814977 -0.0389771 0 0 -0.0401583 -0.0389771 0 0 -0.0401583 -0.0389771 0 0 -0.0401583 -0.037796 0 0 -0.0413394 -0.0389771 0 0 -0.0803165 -0.0389771 0 0 -0.0401583 -0.037796 0 0 -0.0413394 -0.0389771 0 0 -0.0803165 -0.0389771 0 0 -0.0401583 -0.037796 0 0 -0.0401583 -0.0389771 0 0 -0.0814977 -0.0389771 0 0 -0.0401583 -0.0389771 0 0 -0.0803165 -0.037796 0 0 -0.0413394 -0.0389771 0 0 -0.0803165 -0.0389771 0 0 -0.0413394 -0.037796 0 0 -0.0803165 -0.0389771 0 0 -0.0803165 -0.0389771 0 0 -0.0814977 -0.037796 0 0 -0.0803165 -0.0389771 0 0 -0.0814977 -0.0389771 0 0 -0.0803165 -0.037796 0 0 -0.0814977 -0.0389771 0 0 -0.0803165 -0.0389771 0 0 -0.0814977 -0.0389771 0 0 -0.0803165 -0.037796 0 0 -0.121656 -0.0389771 0 0 -0.120475 -0.0389771 0 0 -0.0814977 -0.037796 0 0 -0.121656 -0.0389771 0 0 -0.120475 -0.0389771 0 0 -0.161814 -0.037796 0 0 -0.121656 -0.0389771 0 0 -0.201972 -0.0389771 0 0 -0.161814 -0.0389771 0 0 -0.28347 -0.037796 0 0 -0.282289 -0.0389771 0 0 -1.21302 0.0389771 0 0 -0.363787 0.037796 0 0 -0.243312 0.0389771 0 0 -0.201972 0.0389771 0 0 -0.161814 0.0389771 0 0 -0.120475 0.037796 0 0 -0.161814 0.0389771 0 0 -0.121656 0.0389771 0 0 -0.121656 0.037796 0 0 -0.120475 0.0389771 0 0 -0.0814977 0.0389771 0 0 -0.121656 0.037796 0 0 -0.0803165 0.0389771 0 0 -0.0803165 0.0389771 0 0 -0.121656 0.0389771 0 0 -0.0814977 0.037796 0 0 -0.0401583 0.0389771 0 0 -0.0803165 0.0389771 0 0 -0.0814977 0.037796 0 0 -0.0803165 0.0389771 0 0 -0.0814977 0.0389771 0 0 -0.0803165 0.037796 0 0 -0.0401583 0.0389771 0 0 -0.0814977 0.0389771 0 0 -0.0401583 0.037796 0 0 -0.0814977 0.0389771 0 0 -0.0401583 0.0389771 0 0 -0.0803165 0.0389771 0 0 -0.0413394 0.037796 0 0 -0.0803165 0.0389771 0 0 -0.0401583 0.0389771 0 0 -0.0401583 0.037796 0 0 -0.0814977 0.0389771 0 0 -0.0401583 0.0389771 0 0 -0.0401583 0.037796 0 0 -0.0413394 0.0389771 0 0 -0.0401583 0.0389771 0 0 -0.0803165 0.0389771 0 0 -0.0413394 0.037796 0 0 -0.0401583 0.0389771 0 0 -0.0401583 0.0389771 0 0 -0.0401583 0.037796 0 0 -0.0401583 0.0389771 0 0 -0.0413394 0.0389771 0 0 -0.0401583 0.037796 0 0 -0.0401583 0.0389771 0 0 -0.0401583 0.0389771 0 0 -0.0814977 0.037796 0 0 -0.0803165 0.0389771 0 0 -0.405126 -0.0389771 0 0 -0.0803165 -0.037796 0 0 -0.0803165 -0.0389771 0 0 -0.0413394 -0.0389771 0 0 -0.0803165 -0.0767732 0 0 -0.0401583 -0.0389771 0 0 -0.0413394 -0.037796 0 0 -0.0401583 -0.11575 0 0 -0.0401583 -0.386228 0 0 0.0401583zm1.89216 1.94059l-0.11575 0 0 0.0401583 -0.0389771 0 0 0.0413394 -0.0779543 0 0 0.0401583 -0.037796 0 0 0.0401583 -0.0389771 0 0 0.0401583 -0.0389771 0 0 0.0413394 -0.037796 0 0 0.0401583 -0.0389771 0 0 0.0401583 -0.0389771 0 0 0.0803165 -0.037796 0 0 0.0413394 -0.0389771 0 0 0.0401583 -0.0389771 0 0 0.0401583 -0.037796 0 0 0.0401583 -0.0389771 0 0 0.0814977 -0.0389771 0 0 0.0401583 -0.0389771 0 0 0.0401583 -0.037796 0 0 0.0814977 -0.0389771 0 0 0.0401583 -0.0389771 0 0 0.0814977 -0.037796 0 0 0.0401583 -0.0389771 0 0 0.0803165 -0.0389771 0 0 0.0814977 -0.037796 0 0 0.0803165 -0.0389771 0 0 0.0401583 -0.0389771 0 0 0.0814977 -0.0389771 0 0 0.0803165 -0.037796 0 0 0.0814977 -0.0389771 0 0 0.120475 -0.0389771 0 0 0.0814977 -0.037796 0 0 0.0803165 -0.0389771 0 0 0.121656 -0.0389771 0 0 0.121656 -0.037796 0 0 0.120475 -0.0389771 0 0 0.161814 -0.0389771 0 0 0.161814 -0.037796 0 0 0.201972 -0.0389771 0 0 0.28347 -0.0389771 0 0 1.0512 0.0389771 0 0 0.28347 0.0389771 0 0 0.242131 0.037796 0 0 0.161814 0.0389771 0 0 0.121656 0.0389771 0 0 0.120475 0.037796 0 0 0.121656 0.0389771 0 0 0.121656 0.0389771 0 0 0.120475 0.037796 0 0 0.0814977 0.0389771 0 0 0.0803165 0.0389771 0 0 0.0814977 0.037796 0 0 0.0803165 0.0389771 0 0 0.0814977 0.0389771 0 0 0.0803165 0.0389771 0 0 0.0814977 0.037796 0 0 0.0401583 0.0389771 0 0 0.0803165 0.0389771 0 0 0.0413394 0.037796 0 0 0.0803165 0.0389771 0 0 0.0401583 0.0389771 0 0 0.0814977 0.037796 0 0 0.0401583 0.0389771 0 0 0.0401583 0.0389771 0 0 0.0814977 0.0389771 0 0 0.0401583 0.037796 0 0 0.0401583 0.0389771 0 0 0.0401583 0.0389771 0 0 0.0814977 0.037796 0 0 0.0401583 0.0389771 0 0 0.0401583 0.0389771 0 0 0.0401583 0.037796 0 0 0.0413394 0.0389771 0 0 0.0401583 0.0389771 0 0 0.0401583 0.037796 0 0 0.0413394 0.0389771 0 0 0.0401583 0.0779543 0 0 0.0401583 0.0767732 0 0 0.0401583 0.386228 0 0 -0.0401583 0.11575 0 0 -0.0401583 0.0389771 0 0 -0.0401583 0.0767732 0 0 -0.0413394 0.0389771 0 0 -0.0401583 0.037796 0 0 -0.0814977 0.0389771 0 0 -0.0401583 0.0389771 0 0 -0.0803165 0.0389771 0 0 -0.445284 -0.0389771 0 0 -0.0803165 -0.0389771 0 0 -0.0814977 -0.0389771 0 0 -0.0401583 -0.037796 0 0 -0.0401583 -0.0389771 0 0 -0.0401583 -0.0389771 0 0 -0.0413394 -0.037796 0 0 -0.0401583 -0.0389771 0 0 -0.0803165 -0.0389771 0 0 -0.0401583 -0.037796 0 0 -0.0413394 -0.0389771 0 0 -0.0401583 -0.0389771 0 0 -0.0401583 -0.037796 0 0 -0.0814977 -0.0389771 0 0 -0.0401583 -0.0389771 0 0 -0.0803165 -0.037796 0 0 -0.0413394 -0.0389771 0 0 -0.0803165 -0.0389771 0 0 -0.0803165 -0.0389771 0 0 -0.0413394 -0.037796 0 0 -0.120475 -0.0389771 0 0 -0.0814977 -0.0389771 0 0 -0.0803165 -0.037796 0 0 -0.121656 -0.0389771 0 0 -0.0803165 -0.0389771 0 0 -0.121656 -0.0389771 0 0 -0.161814 -0.037796 0 0 -0.201972 -0.0389771 0 0 -0.243312 -0.0389771 0 0 -0.80789 0.0389771 0 0 -0.28347 0.0389771 0 0 -0.161814 0.037796 0 0 -0.120475 0.0389771 0 0 -0.121656 0.0389771 0 0 -0.121656 0.0389771 0 0 -0.121656 0.037796 0 0 -0.0803165 0.0389771 0 0 -0.0803165 0.0389771 0 0 -0.0814977 0.037796 0 0 -0.0803165 0.0389771 0 0 -0.0814977 0.0389771 0 0 -0.0803165 0.0389771 0 0 -0.0413394 0.037796 0 0 -0.0803165 0.0389771 0 0 -0.0401583 0.0389771 0 0 -0.0401583 0.037796 0 0 -0.0814977 0.0389771 0 0 -0.0401583 0.0389771 0 0 -0.0401583 0.037796 0 0 -0.0814977 0.0389771 0 0 -0.0401583 0.0389771 0 0 -0.0401583 0.037796 0 0 -0.0413394 0.0389771 0 0 -0.0401583 0.0389771 0 0 -0.0401583 0.037796 0 0 -0.0401583 0.0389771 0 0 -0.0814977 0.0389771 0 0 -0.0803165 0.0389771 0 0 -0.405126 -0.0389771 0 0 -0.120475 -0.0389771 0 0 -0.0401583 -0.0389771 0 0 -0.0413394 -0.037796 0 0 -0.0803165 -0.0779543 0 0 -0.0401583 -0.037796 0 0 -0.0413394 -0.0389771 0 0 -0.0401583 -0.11575 0 0 -0.0401583 -0.347251 0 0 0.0401583zm5.48397 0l-0.0779543 0 0 0.0401583 -0.0767732 0 0 0.0413394 -0.0389771 0 0 0.0401583 -0.037796 0 0 0.0401583 -0.0389771 0 0 0.0401583 -0.0389771 0 0 0.0413394 -0.037796 0 0 0.0803165 -0.0389771 0 0 0.0803165 -0.0389771 0 0 0.364968 0.0389771 0 0 0.120475 0.0389771 0 0 0.0413394 0.037796 0 0 0.0803165 0.0389771 0 0 0.0401583 0.0389771 0 0 0.0401583 0.037796 0 0 0.0413394 0.0389771 0 0 0.0401583 0.0389771 0 0 0.0401583 0.037796 0 0 0.0401583 0.0389771 0 0 0.0413394 0.0389771 0 0 0.0803165 0.037796 0 0 0.0401583 0.0389771 0 0 0.0413394 0.0389771 0 0 0.0803165 0.0389771 0 0 0.0401583 0.037796 0 0 0.0814977 0.0389771 0 0 0.0401583 0.0389771 0 0 0.0803165 0.037796 0 0 0.0814977 0.0389771 0 0 0.0803165 0.0389771 0 0 0.0814977 0.037796 0 0 0.0803165 0.0389771 0 0 0.0814977 0.0389771 0 0 0.120475 0.0389771 0 0 0.121656 0.037796 0 0 0.121656 0.0389771 0 0 0.161814 0.0389771 0 0 0.201972 0.037796 0 0 0.28347 0.0389771 0 0 0.565759 -0.0389771 0 0 0.282289 -0.037796 0 0 0.201972 -0.0389771 0 0 0.161814 -0.0389771 0 0 0.121656 -0.037796 0 0 0.121656 -0.0389771 0 0 0.120475 -0.0389771 0 0 0.0814977 -0.0389771 0 0 0.0803165 -0.037796 0 0 0.0814977 -0.0389771 0 0 0.0803165 -0.0389771 0 0 0.0814977 -0.037796 0 0 0.0803165 -0.0389771 0 0 0.0401583 -0.0389771 0 0 0.0814977 -0.037796 0 0 0.0401583 -0.0389771 0 0 0.0814977 -0.0389771 0 0 0.0401583 -0.0389771 0 0 0.0401583 -0.037796 0 0 0.0814977 -0.0389771 0 0 0.0401583 -0.0389771 0 0 0.0401583 -0.037796 0 0 0.0401583 -0.0389771 0 0 0.0401583 -0.0389771 0 0 0.0413394 -0.037796 0 0 0.0401583 -0.0389771 0 0 0.0401583 -0.0389771 0 0 0.0814977 -0.037796 0 0 0.0803165 -0.0389771 0 0 0.0814977 -0.0389771 0 0 0.363787 0.0389771 0 0 0.120475 0.0389771 0 0 0.0814977 0.037796 0 0 0.0401583 0.0389771 0 0 0.0401583 0.0389771 0 0 0.0413394 0.037796 0 0 0.0401583 0.0389771 0 0 0.0401583 0.0767732 0 0 0.0401583 0.0779543 0 0 0.0401583 0.347251 0 0 -0.0401583 0.11575 0 0 -0.0401583 0.0779543 0 0 -0.0401583 0.037796 0 0 -0.0401583 0.0389771 0 0 -0.0413394 0.0389771 0 0 -0.0401583 0.037796 0 0 -0.0401583 0.0389771 0 0 -0.0413394 0.0389771 0 0 -0.0401583 0.037796 0 0 -0.0401583 0.0389771 0 0 -0.0803165 0.0389771 0 0 -0.0413394 0.037796 0 0 -0.0401583 0.0389771 0 0 -0.0401583 0.0389771 0 0 -0.0803165 0.0389771 0 0 -0.0413394 0.037796 0 0 -0.0401583 0.0389771 0 0 -0.0803165 0.0389771 0 0 -0.0413394 0.037796 0 0 -0.0803165 0.0389771 0 0 -0.0401583 0.0389771 0 0 -0.0814977 0.037796 0 0 -0.0401583 0.0389771 0 0 -0.0814977 0.0389771 0 0 -0.0803165 0.0389771 0 0 -0.0803165 0.037796 0 0 -0.0814977 0.0389771 0 0 -0.0803165 0.0389771 0 0 -0.0814977 0.037796 0 0 -0.121656 0.0389771 0 0 -0.0803165 0.0389771 0 0 -0.121656 0.037796 0 0 -0.120475 0.0389771 0 0 -0.121656 0.0389771 0 0 -0.161814 0.037796 0 0 -0.161814 0.0389771 0 0 -0.201972 0.0389771 0 0 -0.323628 0.0389771 0 0 -1.01104 -0.0389771 0 0 -0.323628 -0.0389771 0 0 -0.201972 -0.0389771 0 0 -0.161814 -0.037796 0 0 -0.161814 -0.0389771 0 0 -0.120475 -0.0389771 0 0 -0.121656 -0.037796 0 0 -0.121656 -0.0389771 0 0 -0.0803165 -0.0389771 0 0 -0.121656 -0.037796 0 0 -0.0803165 -0.0389771 0 0 -0.0814977 -0.0389771 0 0 -0.0803165 -0.037796 0 0 -0.0814977 -0.0389771 0 0 -0.0803165 -0.0389771 0 0 -0.0814977 -0.0389771 0 0 -0.0401583 -0.037796 0 0 -0.0803165 -0.0389771 0 0 -0.0814977 -0.0389771 0 0 -0.0401583 -0.037796 0 0 -0.0401583 -0.0389771 0 0 -0.0814977 -0.0389771 0 0 -0.0401583 -0.037796 0 0 -0.0803165 -0.0389771 0 0 -0.0413394 -0.0389771 0 0 -0.0401583 -0.0389771 0 0 -0.0401583 -0.037796 0 0 -0.0814977 -0.0389771 0 0 -0.0401583 -0.0389771 0 0 -0.0401583 -0.037796 0 0 -0.0401583 -0.0389771 0 0 -0.0401583 -0.0389771 0 0 -0.0413394 -0.037796 0 0 -0.0401583 -0.0389771 0 0 -0.0401583 -0.0389771 0 0 -0.0401583 -0.037796 0 0 -0.0413394 -0.0779543 0 0 -0.0401583 -0.0767732 0 0 -0.0401583 -0.386228 0 0 0.0401583z"/>
 </g>
</svg>
