<?xml version="1.0" encoding="UTF-8"?>
<!DOCTYPE svg PUBLIC "-//W3C//DTD SVG 1.1//EN" "http://www.w3.org/Graphics/SVG/1.1/DTD/svg11.dtd">
<!-- Creator: CorelDRAW -->
<?xml-stylesheet href="voz.css" type="text/css"?>
<svg xmlns="http://www.w3.org/2000/svg" xml:space="preserve" width="40px" height="40px" style="shape-rendering:geometricPrecision; text-rendering:geometricPrecision; image-rendering:optimizeQuality; fill-rule:evenodd; clip-rule:evenodd"
viewBox="0 0 40 40"
 xmlns:xlink="http://www.w3.org/1999/xlink">
 <g id="Camada_x0020_1">
  <metadata id="CorelCorpID_0Corel-Layer"/>
  <path class="fil0" d="M8.35883 5.15207l25.145 0c1.33467,0 2.42721,1.14333 2.42721,2.54178l0 24.917c0,1.39845 -1.09254,2.54178 -2.42721,2.54178l-25.145 0c-1.33585,0 -2.42839,-1.14333 -2.42839,-2.54178l0 -24.917c0,-1.39845 1.09254,-2.54178 2.42839,-2.54178zm4.38198 15.6109c0,1.99256 0.274021,3.72409 0.877576,5.47334 0.526782,1.52483 1.27443,2.96463 2.21343,4.22489l0.427567 0.549223c0.175988,0.218508 0.81852,0.980334 0.937814,1.0512 0.170082,0.101577 0.314179,0.151184 0.448828,0.158271l0.0673242 0c0.307093,-0.0165358 0.582295,-0.249218 1.04884,-0.570484l1.95594 -1.27798c0.164176,-0.113388 0.344889,-0.193705 0.465363,-0.362606 0.357881,-0.501978 -0.0307093,-1.14215 -0.298825,-1.84374l-0.908286 -2.37642c-0.0649619,-0.171263 -0.152365,-0.447647 -0.255123,-0.582295l-0.520876 -0.30473c-0.24095,0 -0.428749,0.0165358 -0.660249,0.047245l-2.02209 0.211421 -0.248036 -0.887025c-0.0826788,-0.308274 -0.151184,-0.623634 -0.214965,-0.956712 -0.075592,-0.529144 -0.207878,-1.97602 -0.207878,-2.55359 0,-0.737022 0.0897655,-1.5083 0.201972,-2.11658 0.0637808,-0.342526 0.134648,-0.663793 0.213784,-0.959074l0.255123 -0.916553c0.543318,0 2.35753,0.288195 2.64218,0.256304 0.60828,-0.066143 0.714581,-0.615366 0.897655,-1.0949 0.0992146,-0.261029 0.183074,-0.479537 0.282289,-0.739385l0.837418 -2.19099c0.131105,-0.343708 0.298825,-0.751196 -0.0437016,-1.13861 -0.114569,-0.129924 -0.140554,-0.131105 -0.281108,-0.222052l-1.80004 -1.18231c-0.257485,-0.173625 -1.00278,-0.696864 -1.26026,-0.753558 -0.56694,-0.125199 -0.865765,0.452371 -1.15987,0.75592 -0.108664,0.111026 -0.135829,0.155909 -0.231501,0.275202 -1.24254,1.53783 -2.03626,2.84651 -2.73785,4.82017 -0.561035,1.58035 -0.922459,3.50558 -0.922459,5.2064zm13.9786 -11.79c0,0.42993 0.343708,0.649619 0.620091,1.12443 0.634264,1.09136 1.13506,2.35516 1.14333,3.68157 0.00236225,0.201972 0.0366149,0.219689 0.0389771,0.405126l-0.056694 0.82915c-0.151184,1.08073 -0.4193,2.08587 -0.948444,2.99888l-0.698045 1.04293c-0.150003,0.325991 -0.120475,0.641351 0.183074,0.857497 0.55631,0.39922 0.669698,0.455914 1.11853,-0.122837 1.89098,-2.43194 2.29611,-6.32729 1.13034,-9.17971 -0.325991,-0.800803 -0.638989,-1.31341 -1.11853,-1.97012 -0.0496073,-0.0673242 -0.162995,-0.229138 -0.222052,-0.285832 -0.0826788,-0.0543318 -0.348432,-0.15709 -0.448828,-0.15709 -0.207878,0 -0.741747,0.484262 -0.741747,0.776zm-2.08232 2.14374c0,0.30473 0.490167,0.810252 0.634264,1.25672l0.353157 1.58861c0.0696864,0.634264 -0.124018,1.5142 -0.342526,2.04335 -0.0980334,0.239768 -0.623634,1.18821 -0.644895,1.2827 -0.0814977,0.348432 0.655525,0.814977 0.776,0.85041 0.175988,0 0.37796,-0.112207 0.465363,-0.214965 0.596468,-0.711038 1.08073,-2.06106 1.17994,-3.01541 0.161814,-1.57208 -0.194886,-2.92565 -1.02404,-4.18355 -0.341345,-0.518514 -0.589382,-0.60828 -1.0701,-0.18898 -0.131105,0.114569 -0.327172,0.351975 -0.327172,0.581114zm-2.08351 2.03272c0,0.490167 0.383866,0.835056 0.127562,1.57444 -0.160633,0.46182 -0.269297,0.679147 0.309455,1.14569 0.887025,0.714581 1.5083,-1.25908 1.10435,-2.5595 -0.0696864,-0.219689 -0.219689,-0.610642 -0.347251,-0.74529 -0.511427,-0.539774 -1.19412,0.336621 -1.19412,0.584657z"/>
 </g>
</svg>
